<svg width="263" height="23" viewBox="0 0 263 23" fill="none" xmlns="http://www.w3.org/2000/svg">
<path d="M0.94 6.64L5.23 22H9.73L12.7 12.28H12.76L15.73 22H20.23L24.52 6.64H19.72L17.41 16H17.35L14.83 6.64H10.63L8.11 16H8.05L5.74 6.64H0.94ZM27.1661 4.81C28.5161 4.81 29.5661 4.09 29.5661 2.68C29.5661 1.3 28.5161 0.549999 27.1661 0.549999C25.8161 0.549999 24.7661 1.3 24.7661 2.68C24.7661 4.09 25.8161 4.81 27.1661 4.81ZM24.7661 6.64V22H29.5661V6.64H24.7661ZM38.5145 12.31C36.1445 11.8 35.1845 11.77 35.1845 10.69C35.1845 9.94 35.8745 9.46 37.2245 9.46C38.7845 9.46 39.4445 10.12 39.5945 11.35H44.0945C43.9445 8.65 42.0245 6.16 37.1045 6.16C32.7845 6.16 30.3845 8.29 30.3845 11.08C30.3845 14.29 33.2645 15.25 35.8745 15.82C38.3045 16.36 39.7445 16.54 39.7445 17.86C39.7445 18.73 38.9945 19.18 37.6445 19.18C35.7545 19.18 34.7345 18.43 34.5845 16.9H30.0845C30.2345 20.02 32.3345 22.48 37.8245 22.48C42.0845 22.48 44.5445 20.71 44.5445 17.47C44.5445 13.99 41.5445 12.97 38.5145 12.31ZM52.7882 18.88C51.0782 18.88 49.4882 17.74 49.4882 15.58H60.5282C60.5282 10 57.8582 6.16 52.6082 6.16C47.7182 6.16 44.6882 9.64 44.6882 14.32C44.6882 19.12 47.7782 22.48 52.8782 22.48C57.0482 22.48 59.4482 20.44 60.2882 17.35H55.5182C55.2182 18.1 54.4382 18.88 52.7882 18.88ZM52.6082 9.46C54.4382 9.46 55.7282 10.54 55.7282 12.67H49.4882C49.4882 10.54 50.7782 9.46 52.6082 9.46ZM69.8753 6.37C68.1953 6.37 66.8753 7.45 66.1253 9.16H66.0653V6.64H61.2653V22H66.0653V14.86C66.0653 11.59 68.6753 10.24 71.1353 10.69H71.1953V6.49C70.6553 6.37 70.2953 6.37 69.8753 6.37ZM79.3497 12.31C76.9797 11.8 76.0197 11.77 76.0197 10.69C76.0197 9.94 76.7097 9.46 78.0597 9.46C79.6197 9.46 80.2797 10.12 80.4297 11.35H84.9297C84.7797 8.65 82.8597 6.16 77.9397 6.16C73.6197 6.16 71.2197 8.29 71.2197 11.08C71.2197 14.29 74.0997 15.25 76.7097 15.82C79.1397 16.36 80.5797 16.54 80.5797 17.86C80.5797 18.73 79.8297 19.18 78.4797 19.18C76.5897 19.18 75.5697 18.43 75.4197 16.9H70.9197C71.0697 20.02 73.1697 22.48 78.6597 22.48C82.9197 22.48 85.3797 20.71 85.3797 17.47C85.3797 13.99 82.3797 12.97 79.3497 12.31ZM94.3874 10.24V6.64H91.7174V2.35H86.9174V6.64H84.7874V10.24H86.9174V16.96C86.9174 20.41 87.9074 22.27 91.4174 22.27C92.7674 22.27 93.5174 22.12 94.3874 21.94V18.34C92.3474 18.34 91.7174 18.34 91.7174 16.6V10.24H94.3874ZM105.205 6.64V15.52C105.205 17.65 104.155 18.58 102.325 18.58C100.735 18.58 99.925 17.8 99.925 15.49V6.64H95.125V17.02C95.125 20.53 97.135 22.48 100.105 22.48C102.835 22.48 104.335 21.19 105.145 19.78H105.205V22H110.005V6.64H105.205ZM121.954 0.549999V8.17H121.894C121.294 7.36 119.674 6.16 117.454 6.16C113.374 6.16 110.764 9.28 110.764 14.32C110.764 19.36 113.374 22.48 117.454 22.48C119.674 22.48 121.294 21.28 121.894 20.47H121.954V22H126.754V0.549999H121.954ZM118.714 18.88C116.764 18.88 115.564 17.32 115.564 14.32C115.564 11.32 116.764 9.76 118.714 9.76C120.664 9.76 121.864 11.32 121.864 14.32C121.864 17.32 120.664 18.88 118.714 18.88ZM130.445 4.81C131.795 4.81 132.845 4.09 132.845 2.68C132.845 1.3 131.795 0.549999 130.445 0.549999C129.095 0.549999 128.045 1.3 128.045 2.68C128.045 4.09 129.095 4.81 130.445 4.81ZM128.045 6.64V22H132.845V6.64H128.045ZM141.823 22.48C136.693 22.48 133.603 19.09 133.603 14.32C133.603 9.55 136.693 6.16 141.823 6.16C146.923 6.16 150.013 9.55 150.013 14.32C150.013 19.09 146.923 22.48 141.823 22.48ZM141.823 18.88C143.923 18.88 145.213 17.29 145.213 14.32C145.213 11.35 143.923 9.76 141.823 9.76C139.693 9.76 138.403 11.35 138.403 14.32C138.403 17.29 139.693 18.88 141.823 18.88Z" fill="black"/>
<path d="M162.166 0.549999H158.266L149.956 22H153.856L162.166 0.549999ZM169.962 12.37H174.672C174.282 8.8 171.612 6.16 167.142 6.16C162.402 6.16 159.342 9.55 159.342 14.32C159.342 19.12 162.402 22.48 167.262 22.48C171.672 22.48 174.432 19.84 174.672 16.21H169.962C169.812 17.59 169.152 18.88 167.232 18.88C165.222 18.88 164.142 17.2 164.142 14.32C164.142 11.44 165.252 9.76 167.232 9.76C169.152 9.76 169.812 11.14 169.962 12.37ZM183.943 6.37C182.263 6.37 180.943 7.45 180.193 9.16H180.133V6.64H175.333V22H180.133V14.86C180.133 11.59 182.743 10.24 185.203 10.69H185.263V6.49C184.723 6.37 184.363 6.37 183.943 6.37ZM193.035 18.88C191.325 18.88 189.735 17.74 189.735 15.58H200.775C200.775 10 198.105 6.16 192.855 6.16C187.965 6.16 184.935 9.64 184.935 14.32C184.935 19.12 188.025 22.48 193.125 22.48C197.295 22.48 199.695 20.44 200.535 17.35H195.765C195.465 18.1 194.685 18.88 193.035 18.88ZM192.855 9.46C194.685 9.46 195.975 10.54 195.975 12.67H189.735C189.735 10.54 191.025 9.46 192.855 9.46ZM210.572 10.9C210.572 12.19 208.622 12.49 206.642 12.88C203.042 13.6 200.792 15.01 200.792 18.07C200.792 20.65 202.592 22.48 205.832 22.48C207.872 22.48 209.672 21.52 210.662 20.38H210.722C210.722 21.46 211.322 22.48 213.482 22.48C214.442 22.48 215.312 22.36 216.272 22V20.86C215.672 20.86 215.372 20.53 215.372 19.72V12.67C215.372 7.84 212.972 6.16 208.652 6.16C203.642 6.16 201.542 8.65 201.392 11.59H205.892C206.042 10.12 206.882 9.46 208.622 9.46C209.942 9.46 210.572 10 210.572 10.9ZM207.512 19.18C206.342 19.18 205.592 18.64 205.592 17.38C205.592 16.42 206.222 15.64 208.112 15.22C209.222 14.98 209.972 14.77 210.572 14.53V16.39C210.572 17.86 209.582 19.18 207.512 19.18ZM225.661 10.24V6.64H222.991V2.35H218.191V6.64H216.061V10.24H218.191V16.96C218.191 20.41 219.181 22.27 222.691 22.27C224.041 22.27 224.791 22.12 225.661 21.94V18.34C223.621 18.34 222.991 18.34 222.991 16.6V10.24H225.661ZM228.918 4.81C230.268 4.81 231.318 4.09 231.318 2.68C231.318 1.3 230.268 0.549999 228.918 0.549999C227.568 0.549999 226.518 1.3 226.518 2.68C226.518 4.09 227.568 4.81 228.918 4.81ZM226.518 6.64V22H231.318V6.64H226.518ZM231.507 6.64L236.817 22H242.097L247.407 6.64H242.607L239.487 16.66H239.427L236.307 6.64H231.507ZM254.423 18.88C252.713 18.88 251.123 17.74 251.123 15.58H262.163C262.163 10 259.493 6.16 254.243 6.16C249.353 6.16 246.323 9.64 246.323 14.32C246.323 19.12 249.413 22.48 254.513 22.48C258.683 22.48 261.083 20.44 261.923 17.35H257.153C256.853 18.1 256.073 18.88 254.423 18.88ZM254.243 9.46C256.073 9.46 257.363 10.54 257.363 12.67H251.123C251.123 10.54 252.413 9.46 254.243 9.46Z" fill="#D8D8D8"/>
</svg>
